<?xml version="1.0" encoding="utf-8"?>
<!-- Generator: Adobe Illustrator 19.1.0, SVG Export Plug-In . SVG Version: 6.00 Build 0)  -->
<svg version="1.1" id="Layer_1" xmlns="http://www.w3.org/2000/svg" xmlns:xlink="http://www.w3.org/1999/xlink" x="0px" y="0px"
	 viewBox="0 0 347.2 282" enable-background="new 0 0 347.2 282" xml:space="preserve">
<rect x="234.6" y="87.1" fill="#898B8D" width="	" height="20.5"/>
<g>
	<polygon fill="#18C2EF" points="255.1,46.1 255.1,66.6 275.6,66.6 296.1,66.6 296.1,46.1 275.6,46.1 	"/>
	<rect x="296.1" y="25.6" fill="#18C2EF" width="20.5" height="20.5"/>
	<rect x="316.6" y="5.1" fill="#18C2EF" width="20.5" height="20.5"/>
</g>
<g>
	<polygon fill="#CE1836" points="214,25.6 214,46.1 193.5,46.1 193.5,66.6 173,66.6 173,87.1 152.5,87.1 152.5,107.7 132,107.7 
		132,128.2 152.5,128.2 152.5,148.7 173,148.7 173,128.2 193.5,128.2 193.5,107.7 214,107.7 214,87.1 214,66.6 234.6,66.6 
		234.6,46.1 234.6,25.6 	"/>
	<polygon fill="#CE1836" points="70.4,87.1 49.9,87.1 49.9,107.7 29.4,107.7 29.4,128.2 29.4,148.7 29.4,169.2 8.9,169.2 8.9,189.7 
		8.9,210.2 29.4,210.2 49.9,210.2 49.9,189.7 70.4,189.7 70.4,169.2 70.4,148.7 70.4,128.2 90.9,128.2 90.9,107.7 70.4,107.7 	"/>
</g>
<g>
	<polygon fill="#B7B9BB" points="214,251.3 214,271.8 234.6,271.8 255.1,271.8 255.1,251.3 234.6,251.3 	"/>
	<polygon fill="#E3E4E5" points="296.1,107.7 275.6,107.7 275.6,128.2 296.1,128.2 316.6,128.2 316.6,107.7 	"/>
	<polygon fill="#B7B9BB" points="70.4,251.3 70.4,271.8 90.9,271.8 111.5,271.8 111.5,251.3 90.9,251.3 	"/>
</g>
<path fill="#FFFFFF" d="M296.1,87.1h-20.5V66.6h-20.5h-20.5H214v20.5v20.5h-20.5v20.5H173v20.5h-20.5v-20.5H132h-20.5H90.9H70.4
	v20.5v20.5v20.5v20.5v20.5v20.5h20.5h20.5v-20.5v-20.5H132h20.5H173h20.5H214v20.5v20.5h20.5h20.5v-20.5v-20.5v-20.5v-20.5h20.5
	v-20.5h20.5v-20.5h-20.5v-20.5h20.5h20.5V87.1H296.1z M234.6,107.7V87.1h20.5v20.5H234.6z"/>
</svg>
